<svg xmlns="http://www.w3.org/2000/svg" width="100" height="100" viewBox="0 0 100 100"><path fill="#F4F0D3" d="M50 0c27.614 0 50 22.386 50 50s-22.386 50-50 50-50-22.386-50-50 22.386-50 50-50z"/><path fill="#D58953" d="M50 18c17.673 0 32 14.327 32 32 0 17.674-14.327 32-32 32s-32-14.326-32-32c0-17.673 14.327-32 32-32z"/><path fill="#CA824F" d="M50 27c12.702 0 23 10.297 23 23 0 12.702-10.298 23-23 23s-23-10.298-23-23c0-12.703 10.298-23 23-23z"/><path fill="#D99565" d="M69.683 30.297c7.019 7.031 9.68 17.874 7.689 27.716 3.464-9.95 1.368-21.272-6.377-29.031s-19.049-9.857-28.981-6.388c9.825-1.992 20.65.673 27.669 7.703z"/><path fill="#A2683F" d="M42 38c-2.209 0-4 1.791-4 4s1.791 4 4 4 4-1.791 4-4-1.791-4-4-4zm16 8c2.209 0 4-1.791 4-4s-1.791-4-4-4-4 1.791-4 4 1.791 4 4 4zm0 8c-2.209 0-4 1.791-4 4s1.791 4 4 4 4-1.791 4-4-1.791-4-4-4zm-16 0c-2.209 0-4 1.791-4 4s1.791 4 4 4 4-1.791 4-4-1.791-4-4-4z"/><path fill="#F4F0D3" d="M58.416 55.449l-13.86-13.861c-.811-.811-2.126-.811-2.937 0-.811.811-.811 2.126 0 2.937l13.86 13.86c.812.811 2.126.811 2.937 0 .811-.811.811-2.125 0-2.936z"/><path fill="#CBC8AF" d="M50.557 53.463l-4.021-4.021 2.937-2.937 4.021 4.021z"/><path fill="#F4F0D3" d="M41.615 55.449l13.86-13.861c.811-.811 2.126-.811 2.937 0 .811.811.811 2.126 0 2.937l-13.86 13.86c-.811.811-2.126.811-2.937 0-.81-.811-.81-2.125 0-2.936z"/><path fill="#BA7849" d="M52 71c-12.702 0-23-10.298-23-23 0-5.842 2.182-11.172 5.771-15.229-4.764 4.214-7.771 10.369-7.771 17.229 0 12.702 10.298 23 23 23 6.86 0 13.015-3.007 17.229-7.771-4.057 3.588-9.387 5.771-15.229 5.771z"/><path fill="#DBD8BD" d="M50 82c-17.673 0-32-14.326-32-32 0-8.328 3.183-15.911 8.396-21.604-6.388 5.851-10.396 14.259-10.396 23.604 0 17.674 14.327 32 32 32 9.346 0 17.753-4.008 23.604-10.396-5.694 5.213-13.276 8.396-21.604 8.396z"/></svg>