<svg xmlns="http://www.w3.org/2000/svg" width="100" height="100" viewBox="0 0 100 100"><path fill="#4681A0" d="M50 0c27.614 0 50 22.386 50 50s-22.386 50-50 50-50-22.386-50-50 22.386-50 50-50z"/><path fill="#fff" d="M64.01 63.75l-.021-1.5c.034 0 3.41-.069 6.717-1.759 4.342-2.218 6.544-6.084 6.544-11.491h1.5c0 14.396-14.593 14.748-14.74 14.75z"/><path fill="#3F7490" d="M65.01 64.75l-.021-1.5c.034 0 3.41-.069 6.717-1.759 4.342-2.218 6.544-6.084 6.544-11.491h1.5c0 14.396-14.593 14.748-14.74 14.75z"/><path fill="#D5D5D5" d="M79 45c1.656 0 3 1.344 3 3 0 1.657-1.344 3-3 3s-3-1.343-3-3c0-1.656 1.344-3 3-3z"/><path fill="#BDBDBD" d="M32 61h36c2.209 0 4 1.791 4 4v10c0 2.209-1.791 4-4 4h-36c-2.209 0-4-1.791-4-4v-10c0-2.209 1.791-4 4-4z"/><path fill="#3F7490" d="M48 21c12.15 0 22 9.85 22 22s-9.85 22-22 22-22-9.85-22-22 9.85-22 22-22z"/><path fill="#D5D5D5" d="M32 58h36c2.209 0 4 1.791 4 4v10c0 2.209-1.791 4-4 4h-36c-2.209 0-4-1.791-4-4v-10c0-2.209 1.791-4 4-4z"/><path fill="#BFBFBF" d="M32 58l-.079.008c4.015 4.301 9.731 6.992 16.079 6.992 6.352 0 12.071-2.695 16.087-7h-32.087z"/><path fill="#A4A4A4" d="M32 61c-.552 0-1 .448-1 1 0 .553.448 1 1 1s1-.447 1-1c0-.552-.448-1-1-1zm36 2c.553 0 1-.447 1-1 0-.552-.447-1-1-1s-1 .448-1 1c0 .553.447 1 1 1zm0 8c-.553 0-1 .448-1 1 0 .553.447 1 1 1s1-.447 1-1c0-.552-.447-1-1-1zm-36 0c-.552 0-1 .448-1 1 0 .553.448 1 1 1s1-.447 1-1c0-.552-.448-1-1-1z"/><path fill="#F0C75E" d="M50 19c12.15 0 22 9.85 22 22s-9.85 22-22 22-22-9.85-22-22 9.85-22 22-22z"/><path fill="#D9B455" d="M49 39c1.656 0 3 1.344 3 3s-1.344 3-3 3c-1.657 0-3-1.344-3-3s1.343-3 3-3z"/><path fill="#F5D88F" d="M50 38c1.656 0 3 1.344 3 3s-1.344 3-3 3c-1.657 0-3-1.344-3-3s1.343-3 3-3z"/><path fill="#BABABA" d="M80 50c-1.656 0-3-1.343-3-3 0-.571.168-1.1.445-1.554-.863.527-1.445 1.469-1.445 2.554 0 1.657 1.344 3 3 3 1.085 0 2.027-.582 2.555-1.446-.455.278-.984.446-1.555.446z"/><path fill="#F7E4B0" d="M50 38c-1.085 0-2.027.582-2.554 1.446.454-.278.983-.446 1.554-.446 1.656 0 3 1.344 3 3 0 .571-.168 1.1-.445 1.554.863-.527 1.445-1.469 1.445-2.554 0-1.656-1.344-3-3-3z"/><path fill="#DFB957" d="M53 58c-12.15 0-22-9.85-22-22 0-3.088.639-6.027 1.788-8.694-2.994 3.758-4.788 8.515-4.788 13.694 0 12.15 9.85 22 22 22 9.062 0 16.842-5.48 20.212-13.306-4.03 5.06-10.24 8.306-17.212 8.306z"/></svg>