<svg xmlns="http://www.w3.org/2000/svg" width="100" height="100" viewBox="0 0 100 100"><path fill="#2EA9D3" d="M50 0c27.614 0 50 22.386 50 50s-22.386 50-50 50-50-22.386-50-50 22.386-50 50-50z"/><path fill="#EDEDED" d="M19 25.001h62c1.657 0 3 1.343 3 3v69c0 1.656-1.343 3-3 3h-62c-1.657 0-3-1.344-3-3v-69c0-1.657 1.343-3 3-3z"/><path fill="#324D5B" d="M23 32h54v18h-54v-18z"/><path fill="#B3B9BD" d="M59.488 40.625c.344-.15.61-.368.801-.652.189-.285.284-.61.284-.975 0-.587-.206-1.073-.62-1.456s-.994-.575-1.743-.575c-.755 0-1.339.192-1.748.575-.41.383-.615.868-.615 1.456 0 .343.089.66.267.948.177.288.461.515.851.68-.454.193-.788.468-.999.824-.211.356-.316.748-.316 1.174 0 .773.281 1.382.843 1.826.476.376 1.072.564 1.788.564.771 0 1.387-.227 1.852-.682.463-.455.695-1.046.695-1.772 0-.44-.114-.829-.342-1.165-.228-.339-.56-.594-.998-.77zm-1.955-2.202c.172-.172.402-.258.693-.258.279 0 .504.085.674.255s.255.396.255.68c0 .301-.086.536-.258.706s-.401.255-.688.255c-.282 0-.509-.084-.679-.252-.171-.168-.256-.403-.256-.704.001-.283.087-.51.259-.682zm1.493 5.041c-.204.224-.462.335-.773.335-.319 0-.585-.117-.798-.349s-.319-.557-.319-.973c0-.297.091-.573.271-.827.181-.254.456-.381.824-.381.319 0 .582.112.79.335.207.225.311.521.311.89 0 .423-.102.746-.306.97zm6.462-2.839c.344-.15.61-.368.801-.652.189-.285.284-.61.284-.975 0-.587-.206-1.073-.62-1.456s-.994-.575-1.743-.575c-.755 0-1.339.192-1.748.575-.41.383-.615.868-.615 1.456 0 .343.089.66.267.948.177.288.461.515.851.68-.454.193-.788.468-.999.824-.211.356-.316.748-.316 1.174 0 .773.281 1.382.843 1.826.476.376 1.072.564 1.788.564.771 0 1.387-.227 1.852-.682.463-.455.695-1.046.695-1.772 0-.44-.114-.829-.342-1.165-.228-.339-.56-.594-.998-.77zm-1.955-2.202c.172-.172.402-.258.693-.258.279 0 .504.085.674.255s.255.396.255.68c0 .301-.086.536-.258.706s-.401.255-.688.255c-.282 0-.509-.084-.679-.252-.171-.168-.256-.403-.256-.704.001-.283.087-.51.259-.682zm1.493 5.041c-.204.224-.462.335-.773.335-.319 0-.585-.117-.798-.349s-.319-.557-.319-.973c0-.297.091-.573.271-.827.181-.254.456-.381.824-.381.319 0 .582.112.79.335.207.225.311.521.311.89 0 .423-.102.746-.306.97zm7.015-5.57c-.512-.617-1.167-.927-1.965-.927-.734 0-1.339.245-1.812.733-.475.489-.713 1.133-.713 1.931 0 .766.225 1.388.675 1.866.449.478.983.717 1.603.717.57 0 1.045-.221 1.424-.661-.061.902-.201 1.497-.419 1.784-.218.286-.483.43-.795.43-.247 0-.446-.072-.597-.216-.15-.143-.243-.363-.279-.66l-1.461.161c.107.651.352 1.141.73 1.469.38.328.878.491 1.494.491.855 0 1.55-.318 2.084-.955.533-.638.8-1.676.8-3.115 0-1.415-.256-2.43-.769-3.048zm-1.221 2.871c-.199.229-.443.344-.734.344-.301 0-.551-.119-.752-.357-.2-.238-.301-.611-.301-1.12 0-.501.093-.863.277-1.083.184-.22.416-.33.695-.33.293 0 .553.134.776.402.224.269.335.646.335 1.134.001.444-.097.78-.296 1.01z"/><path fill="#E2574C" d="M36 56.001h-10c-1.657 0-3 1.343-3 3v10c0 1.656 1.343 3 3 3h10c1.657 0 3-1.344 3-3v-10c0-1.657-1.343-3-3-3zm0 19h-10c-1.657 0-3 1.343-3 3v10c0 1.656 1.343 3 3 3h10c1.657 0 3-1.344 3-3v-10c0-1.657-1.343-3-3-3zm19-19h-10c-1.657 0-3 1.343-3 3v10c0 1.656 1.343 3 3 3h10c1.657 0 3-1.344 3-3v-10c0-1.657-1.343-3-3-3zm0 19h-10c-1.657 0-3 1.343-3 3v10c0 1.656 1.343 3 3 3h10c1.657 0 3-1.344 3-3v-10c0-1.657-1.343-3-3-3z"/><path fill="#fff" d="M47 84.001v-2h6v2h-6zm4-4c0 .553-.447 1-1 1s-1-.447-1-1 .447-1 1-1 1 .447 1 1zm-23 2h6v2h-6v-2zm4-15.001h-2v-2h-2v-1.999h2v-2h2v2h2v1.999h-2v2zm18 18.001c.553 0 1 .447 1 1s-.447 1-1 1-1-.447-1-1 .447-1 1-1zm-2.828-22.414l1.414-1.415 1.414 1.415 1.414-1.415 1.414 1.414-1.414 1.414 1.414 1.415-1.414 1.414-1.414-1.414-1.415 1.414-1.414-1.414 1.414-1.414-1.413-1.414z"/><path fill="#3DB39E" d="M64 56.001h10c1.657 0 3 1.343 3 3v29c0 1.656-1.343 3-3 3h-10c-1.656 0-3-1.344-3-3v-29c0-1.657 1.344-3 3-3z"/><path fill="#fff" d="M66 70.001v2h6v-2h-6zm0 5h6v-2h-6v2z"/><path fill="#349886" d="M74 89.001h-10c-1.656 0-3-1.344-3-3v2c0 1.656 1.344 3 3 3h10c1.657 0 3-1.344 3-3v-2c0 1.656-1.343 3-3 3z"/><g fill="#C04A41"><path d="M55 70.001h-10c-1.657 0-3-1.344-3-3v2c0 1.656 1.343 3 3 3h10c1.657 0 3-1.344 3-3v-2c0 1.656-1.343 3-3 3zM36 70.001h-10c-1.657 0-3-1.344-3-3v2c0 1.656 1.343 3 3 3h10c1.657 0 3-1.344 3-3v-2c0 1.656-1.343 3-3 3zM36 89.001h-10c-1.657 0-3-1.344-3-3v2c0 1.656 1.343 3 3 3h10c1.657 0 3-1.344 3-3v-2c0 1.656-1.343 3-3 3zM55 89.001h-10c-1.657 0-3-1.344-3-3v2c0 1.656 1.343 3 3 3h10c1.657 0 3-1.344 3-3v-2c0 1.656-1.343 3-3 3z"/></g><path fill="#DCDCDC" d="M81 98.001h-62c-1.657 0-3-1.344-3-3v2c0 1.656 1.343 3 3 3h62c1.657 0 3-1.344 3-3v-2c0 1.656-1.343 3-3 3z"/></svg>