<svg xmlns="http://www.w3.org/2000/svg" width="100" height="100" viewBox="0 0 100 100"><path fill="#EFC75E" d="M50 0c27.614 0 50 22.386 50 50s-22.386 50-50 50-50-22.386-50-50 22.386-50 50-50z"/><path fill="#2B414D" d="M76 27h-47c-3.866 0-7 3.135-7 7v57.43c7.989 5.409 17.625 8.57 28 8.57 12.649 0 24.193-4.707 33-12.453v-53.547c0-3.865-3.134-7-7-7z"/><path fill="#CCD0D2" d="M74 27h-47c-3.866 0-7 3.135-7 7v56.001c8.357 6.277 18.743 9.999 30 9.999 11.714 0 22.478-4.039 31-10.785v-55.215c0-3.865-3.134-7-7-7z"/><path fill="#324D5B" d="M71 24.999h-46c-3.866 0-7 3.135-7 7v56.414c8.671 7.232 19.826 11.587 32 11.587 10.375 0 20.011-3.161 28-8.57v-59.431c0-3.865-3.134-7-7-7z"/><path fill="#2D4552" d="M18 31.999v56.414c.968.808 1.972 1.571 3 2.305v-58.719c0-3.865 3.134-7 7-7h-3c-3.866 0-7 3.135-7 7z"/><path fill="#99A6AD" d="M53.077 65.132h4.135c-1.611-2.124-4.045-3.839-6.889-4.479 1.101 1.274 2.058 2.816 2.754 4.479m1.438 6.702h5.151c-.104-1.948-.667-3.774-1.581-5.375l-4.509.007c.548 1.672.876 3.478.939 5.368m-.941 6.694l4.511.006c.914-1.6 1.477-3.426 1.581-5.374h-5.151c-.063 1.891-.391 3.697-.941 5.368m-.497 1.335c-.696 1.662-1.653 3.203-2.754 4.479 2.844-.642 5.278-2.357 6.889-4.479h-4.135zm-1.433 0h-3.484v4.796c1.42-1.267 2.617-2.905 3.484-4.796m1.553-6.703h-5.037v5.374h4.019c.599-1.678.952-3.48 1.018-5.374m-1.018-6.699h-4.019v5.374h5.037c-.066-1.894-.419-3.697-1.018-5.374m-.535-1.329c-.866-1.891-2.063-3.529-3.483-4.797v4.797h3.483zm-8.284 0h3.482v-4.797c-1.418 1.268-2.616 2.906-3.482 4.797m-1.553 6.702h5.036v-5.373h-4.019c-.598 1.677-.951 3.48-1.017 5.373m1.017 6.699h4.019v-5.373h-5.036c.066 1.894.419 3.696 1.017 5.373m.536 1.33c.865 1.89 2.063 3.528 3.482 4.796v-4.796h-3.482zm-1.433 0h-4.135c1.611 2.122 4.045 3.838 6.89 4.479-1.102-1.276-2.06-2.817-2.755-4.479m-1.438-6.703h-5.151c.104 1.947.666 3.774 1.581 5.374l4.51-.006c-.55-1.671-.877-3.478-.94-5.368m.94-6.694l-4.51-.006c-.915 1.601-1.477 3.427-1.581 5.375h5.151c.063-1.891.39-3.697.94-5.369m-3.637-1.334h4.135c.695-1.663 1.653-3.205 2.755-4.479-2.845.64-5.279 2.355-6.89 4.479m-3.789 7.365c0-7.452 6.044-13.494 13.499-13.494s13.498 6.042 13.498 13.494c0 7.453-6.044 13.495-13.498 13.495-7.455 0-13.499-6.042-13.499-13.495"/><path fill="#99A6AD" d="M68 37.999h-40c-.553 0-1 .448-1 1v2c0 .553.447 1 1 1h40c.553 0 1-.447 1-1v-2c0-.552-.447-1-1-1zm-5 8h-30c-.553 0-1 .447-1 1v2c0 .553.447 1 1 1h30c.553 0 1-.447 1-1v-2c0-.553-.447-1-1-1z"/></svg>