<svg xmlns="http://www.w3.org/2000/svg" width="100" height="100" viewBox="0 0 100 100"><path fill="#3DB39E" d="M50 0c27.613 0 50 22.387 50 50s-22.387 50-50 50-50-22.387-50-50 22.387-50 50-50z"/><path fill="#D9D8D7" d="M89 61l-.117 6.777c.525 2.145-1.061 4.223-3.223 4.223h-71.318c-2.162 0-3.865-1.855-3.342-4v-7h78z"/><path fill="#F2F1EF" d="M20.9 28h58.207c1.525 0 2.854 1.062 3.223 2.574l6.553 29.203c.525 2.145-1.061 4.223-3.223 4.223h-71.318c-2.162 0-3.748-2.078-3.225-4.223l6.559-29.203c.371-1.513 1.699-2.574 3.224-2.574z"/><path fill="#324D5B" d="M42 32c11.045 0 20 5.373 20 12s-8.955 12-20 12c-11.047 0-20-5.373-20-12s8.953-12 20-12z"/><path fill="#D9D8D7" d="M42 32c11.045 0 20 5.373 20 12s-8.955 12-20 12c-11.047 0-20-5.373-20-12s8.953-12 20-12m0-2c-12.336 0-22 6.149-22 14s9.664 14 22 14c12.337 0 22-6.149 22-14s-9.663-14-22-14z"/><g fill="#475F6C"><path d="M23.538 39.384l18.462 4.616-5.149-11.583c-6.031.962-10.945 3.562-13.313 6.967zM60.462 48.615l-18.462-4.615 5.149 11.584c6.03-.964 10.945-3.563 13.313-6.969z"/></g><g fill="#DDDCDB"><path d="M62.585 48.99l-2.049-.497c-2.336 3.464-7.287 6.116-13.387 7.09l.843 1.896c6.799-1.182 12.171-4.337 14.593-8.489zM21.591 38.698l2.058.535c2.407-3.331 7.262-5.868 13.201-6.816l-.843-1.896c-6.629 1.153-11.911 4.178-14.416 8.177z"/></g><path fill="#2D4552" d="M42 35.75c7.857 0 14.25 3.701 14.25 8.25s-6.393 8.25-14.25 8.25-14.25-3.701-14.25-8.25 6.393-8.25 14.25-8.25m0-.75c-8.285 0-15 4.029-15 9s6.715 9 15 9 15-4.029 15-9-6.715-9-15-9z"/><path fill="#E2574C" d="M42 39c4.418 0 8 2.238 8 5s-3.582 5-8 5-8-2.238-8-5 3.582-5 8-5z"/><path fill="#9E3D35" d="M42 43c1.105 0 2 .447 2 1s-.895 1-2 1-2-.447-2-1 .895-1 2-1z"/><path fill="#D5D9D9" d="M66 33h12l4 20h-13l-3-20z"/><path fill="#ACAFAF" d="M69 35l2 12h2l-2-12h-2zm7 0h-2l2 12h2l-2-12z"/><path fill="#26A6D1" d="M72.5 49c-.828 0-1.5.449-1.5 1s.672 1 1.5 1 1.5-.449 1.5-1-.672-1-1.5-1zm5 0c-.828 0-1.5.449-1.5 1s.672 1 1.5 1 1.5-.449 1.5-1-.672-1-1.5-1z"/><path fill="#3DB39E" d="M80 56c1.105 0 2 .672 2 1.5s-.895 1.5-2 1.5-2-.672-2-1.5.895-1.5 2-1.5z"/><path fill="#BDBDBD" d="M17.5 57c-.828 0-1.5.447-1.5 1s.672 1 1.5 1 1.5-.447 1.5-1-.672-1-1.5-1zm5 0c-.828 0-1.5.447-1.5 1s.672 1 1.5 1 1.5-.447 1.5-1-.672-1-1.5-1z"/><g fill="#324D5B"><path d="M28.153 40.538l.77.192c1.732-2.313 5.245-4.072 9.529-4.711l-.314-.707c-4.523.723-8.209 2.671-9.985 5.226zM55.847 47.462l-.77-.192c-1.731 2.313-5.245 4.072-9.529 4.711l.314.707c4.523-.722 8.208-2.671 9.985-5.226z"/></g><g fill="#26A6D1"><path d="M70.333 43l.667 4h2l-.667-4zM75 40v1l1 6h2l-1.167-7z"/></g></svg>