<svg xmlns="http://www.w3.org/2000/svg" width="100" height="100" viewBox="0 0 100 100"><path fill="#82D2ED" d="M50 0c27.614 0 50 22.386 50 50s-22.386 50-50 50-50-22.386-50-50 22.386-50 50-50z"/><path fill="#4681A0" d="M74.675 27.326c-.384-.384-.993-.423-1.422-.089l-5.236 4.072-.006.092 2.59 2.59.092-.006 4.071-5.237c.333-.429.295-1.038-.089-1.422zm-45.282 42.733c-1.909 1.875-4.44 2.428-6.337.566-1.283-1.26-.704-3.655 1.145-5.523.651-.658.797-1.703.218-2.424-.686-.852-1.948-.906-2.707-.161 0 0-1.343 1.575-1.789 2.581-1.268 2.85-1.436 5.565.829 7.79 1.618 1.589 3.818 2.278 6.001 2.09 1.828-.157 3.516-1.032 4.835-2.285l6.407-6.033-2.561-2.514-6.041 5.913z"/><path fill="#DADFE1" d="M37.779 67.011l-2.789-2.79 21.646-21.646c.77-.771 2.019-.771 2.789 0 .771.77 1.771 1.019 1 1.789l-22.646 22.647z"/><path fill="#C4C8CA" d="M54.88 49.912l-2.789-2.79 3.536-3.535 2.789 2.79z"/><path fill="#E2574C" d="M71.152 61.46c3.645 3.644 5.264 8.021 3.878 10.177.366-.315.727-.639 1.072-.984 10.153-10.153 8.254-28.515-4.243-41.012-12.496-12.497-30.858-14.396-41.012-4.243-.346.345-.669.706-.984 1.072 2.156-1.385 6.533.234 10.177 3.878 3.515 3.515 5.148 7.713 4.017 9.94-.223.438-.19.957.156 1.304l.14.139c.346.346.866.378 1.303.157 2.229-1.132 6.427.501 9.941 4.016 3.515 3.515 5.147 7.713 4.016 9.941-.222.437-.189.957.157 1.304l.139.139c.347.347.867.379 1.304.156 2.226-1.132 6.425.501 9.939 4.016z"/><path fill="#F2F1EF" d="M70.586 28.425c-7.4-.368-16.938 3.87-24.889 11.822-.476.476-.935.958-1.384 1.445l.039.039c.346.346.866.378 1.303.157 2.229-1.132 6.427.501 9.941 4.016 3.515 3.515 5.147 7.713 4.016 9.941-.222.437-.189.957.157 1.304l.038.038c.486-.449.97-.908 1.445-1.384 7.953-7.951 12.19-17.488 11.822-24.889-.395-.431-.798-.855-1.216-1.273s-.841-.822-1.272-1.216z"/><path fill="#C74C43" d="M74.111 65.294c1.431 2.516 1.836 4.916.919 6.343.366-.315.727-.639 1.072-.984 9.712-9.713 8.389-26.932-2.683-39.348 7.269 11.101 7.417 25.02.692 33.989z"/></svg>