<svg xmlns="http://www.w3.org/2000/svg" width="100" height="100" viewBox="0 0 100 100"><path fill="#2EA9D3" d="M50 0c27.614 0 50 22.386 50 50s-22.386 50-50 50S0 77.614 0 50 22.386 0 50 0z"/><path fill="#EDEDED" d="M19 25h62c1.657 0 3 1.344 3 3v69c0 1.657-1.343 3-3 3H19c-1.657 0-3-1.343-3-3V28c0-1.656 1.343-3 3-3z"/><path fill="#324D5B" d="M23 32h54v18H23V32z"/><path fill="#B3B9BD" d="M59.488 40.625c.344-.15.61-.368.8-.652.19-.285.285-.61.285-.975 0-.587-.206-1.073-.62-1.456s-.994-.575-1.743-.575c-.755 0-1.34.192-1.748.575-.41.383-.615.868-.615 1.456 0 .343.09.66.267.948.177.288.46.515.85.68-.453.193-.787.468-.998.824-.21.356-.316.748-.316 1.174 0 .773.28 1.382.843 1.826.476.376 1.072.564 1.788.564.772 0 1.388-.227 1.853-.682.463-.455.695-1.046.695-1.772 0-.44-.114-.83-.342-1.165-.228-.34-.56-.594-.998-.77zm-1.955-2.202c.172-.172.402-.258.693-.258.28 0 .504.085.674.255s.255.396.255.68c0 .3-.086.536-.258.706s-.4.255-.688.255c-.283 0-.51-.083-.68-.25-.17-.17-.256-.404-.256-.705 0-.283.087-.51.26-.682zm1.493 5.04c-.204.225-.462.336-.773.336-.32 0-.585-.118-.798-.35s-.32-.557-.32-.973c0-.297.092-.573.272-.827.18-.254.456-.38.824-.38.32 0 .583.11.79.334.208.225.312.52.312.89 0 .423-.102.746-.306.97zm6.462-2.838c.344-.15.61-.368.8-.652.19-.285.285-.61.285-.975 0-.587-.206-1.073-.62-1.456s-.994-.575-1.743-.575c-.755 0-1.34.192-1.748.575-.41.383-.615.868-.615 1.456 0 .343.09.66.267.948.177.288.46.515.85.68-.453.193-.787.468-.998.824-.21.356-.316.748-.316 1.174 0 .773.28 1.382.843 1.826.476.376 1.072.564 1.788.564.772 0 1.388-.227 1.853-.682.463-.455.695-1.046.695-1.772 0-.44-.114-.83-.342-1.165-.228-.34-.56-.594-.998-.77zm-1.955-2.202c.172-.172.402-.258.693-.258.28 0 .504.085.674.255s.255.396.255.68c0 .3-.086.536-.258.706s-.4.255-.688.255c-.283 0-.51-.083-.68-.25-.17-.17-.256-.404-.256-.705 0-.283.087-.51.26-.682zm1.493 5.04c-.204.225-.462.336-.773.336-.32 0-.585-.118-.798-.35s-.32-.557-.32-.973c0-.297.092-.573.272-.827.18-.254.456-.38.824-.38.32 0 .583.11.79.334.208.225.312.52.312.89 0 .423-.102.746-.306.97zm7.015-5.57c-.51-.616-1.166-.926-1.964-.926-.734 0-1.34.245-1.812.733-.475.49-.713 1.133-.713 1.93 0 .767.226 1.39.676 1.867.45.478.983.717 1.603.717.57 0 1.044-.22 1.423-.66-.06.9-.2 1.496-.42 1.783-.217.286-.482.43-.794.43-.248 0-.447-.072-.598-.216-.15-.142-.243-.362-.28-.66l-1.46.162c.107.65.352 1.14.73 1.47.38.327.878.49 1.494.49.855 0 1.55-.318 2.084-.955.533-.638.8-1.676.8-3.115 0-1.415-.256-2.43-.77-3.048zm-1.22 2.872c-.2.23-.443.344-.734.344-.3 0-.55-.12-.752-.358-.2-.238-.3-.61-.3-1.12 0-.5.092-.863.276-1.083.184-.22.416-.33.695-.33.293 0 .553.133.776.4.225.27.336.647.336 1.135 0 .444-.097.78-.296 1.01z"/><path fill="#E2574C" d="M36 56H26c-1.657 0-3 1.344-3 3v10c0 1.657 1.343 3 3 3h10c1.657 0 3-1.343 3-3V59c0-1.656-1.343-3-3-3zm0 19H26c-1.657 0-3 1.344-3 3v10c0 1.657 1.343 3 3 3h10c1.657 0 3-1.343 3-3V78c0-1.656-1.343-3-3-3zm19-19H45c-1.657 0-3 1.344-3 3v10c0 1.657 1.343 3 3 3h10c1.657 0 3-1.343 3-3V59c0-1.656-1.343-3-3-3zm0 19H45c-1.657 0-3 1.344-3 3v10c0 1.657 1.343 3 3 3h10c1.657 0 3-1.343 3-3V78c0-1.656-1.343-3-3-3z"/><path fill="#fff" d="M47 84v-2h6v2h-6zm4-4c0 .554-.447 1-1 1s-1-.446-1-1 .447-1 1-1 1 .448 1 1zm-23 2h6v2h-6v-2zm4-15h-2v-2h-2v-2h2v-2h2v2h2v2h-2v2zm18 18c.553 0 1 .448 1 1s-.447 1-1 1-1-.446-1-1 .447-1 1-1zm-2.828-22.413l1.414-1.415L50 62.587l1.414-1.415 1.414 1.414L51.414 64l1.414 1.415-1.414 1.414L50 65.414l-1.415 1.414-1.414-1.415L48.586 64l-1.413-1.413z"/><path fill="#3DB39E" d="M64 56h10c1.657 0 3 1.344 3 3v29c0 1.657-1.343 3-3 3H64c-1.656 0-3-1.343-3-3V59c0-1.656 1.344-3 3-3z"/><path fill="#fff" d="M66 70v2h6v-2h-6zm0 5h6v-2h-6v2z"/><path fill="#349886" d="M74 89H64c-1.656 0-3-1.343-3-3v2c0 1.657 1.344 3 3 3h10c1.657 0 3-1.343 3-3v-2c0 1.657-1.343 3-3 3z"/><path d="M55 70H45c-1.657 0-3-1.343-3-3v2c0 1.657 1.343 3 3 3h10c1.657 0 3-1.343 3-3v-2c0 1.657-1.343 3-3 3zm-19 0H26c-1.657 0-3-1.343-3-3v2c0 1.657 1.343 3 3 3h10c1.657 0 3-1.343 3-3v-2c0 1.657-1.343 3-3 3zm0 19H26c-1.657 0-3-1.343-3-3v2c0 1.657 1.343 3 3 3h10c1.657 0 3-1.343 3-3v-2c0 1.657-1.343 3-3 3zm19 0H45c-1.657 0-3-1.343-3-3v2c0 1.657 1.343 3 3 3h10c1.657 0 3-1.343 3-3v-2c0 1.657-1.343 3-3 3z" fill="#C04A41"/><path fill="#DCDCDC" d="M81 98H19c-1.657 0-3-1.343-3-3v2c0 1.657 1.343 3 3 3h62c1.657 0 3-1.343 3-3v-2c0 1.657-1.343 3-3 3z"/></svg>